<svg xmlns="http://www.w3.org/2000/svg" viewBox="0 0 60 60"><defs><style>.cls-1{fill:#fd8a05;}.cls-2{fill:#d85803;}.cls-3{fill:#fff;}</style></defs><title>lock logo_1</title><g id="图层_2" data-name="图层 2"><rect id="锁橙" class="cls-1" width="60" height="60"/><path id="锁影" class="cls-2" d="M23.86,19.38,0,43.23V60H19.62L38.91,40.71l-2-5.83s-.06-3.66-.11-4.23-.57-2.55-.57-2.55S35.3,23,35.3,22.85s-.57-2.49-.57-2.49Z"/><path id="锁白" class="cls-3" d="M37,26.2V21.77a3.27,3.27,0,0,0-3.27-3.27H26.18a3.27,3.27,0,0,0-3.27,3.27v4.44A2.85,2.85,0,0,0,20.28,29v9.6a2.85,2.85,0,0,0,2.85,2.85H36.87a2.85,2.85,0,0,0,2.85-2.85V29A2.85,2.85,0,0,0,37,26.2Zm-5.71,8.92v3.11a1.17,1.17,0,0,1-2.34,0V35.13a2.9,2.9,0,1,1,2.34,0Zm2.93-8.93H25.69V21.77a.49.49,0,0,1,.49-.49h7.59a.49.49,0,0,1,.49.49Z"/></g></svg>