<svg xmlns="http://www.w3.org/2000/svg" viewBox="0 0 184.29 182.7"><defs><style>.cls-1{fill:#fff;stroke:#000;stroke-miterlimit:10;stroke-width:0.43px;}.cls-2{fill:#662d91;}.cls-3{fill:red;}.cls-4{fill:#f0f;}.cls-5{fill:#0071bc;}.cls-6{fill:aqua;}.cls-7{fill:#0ac200;}.cls-8{fill:#7dff00;}.cls-9{fill:#ff0;}.cls-10{fill:#f7931e;}</style></defs><title>资源 2</title><g id="图层_2" data-name="图层 2"><g id="logo"><path id="黑色" d="M118.23,185.05l-20-6.69a11.68,11.68,0,0,0-8,.21l-19.6,7.72a11.68,11.68,0,0,1-14.24-4.77l-11-18a11.68,11.68,0,0,0-6.25-5l-20-6.69a11.68,11.68,0,0,1-7.84-12.8l3.12-20.84a11.68,11.68,0,0,0-1.59-7.83l-11-18A11.68,11.68,0,0,1,4.08,77.62l15.78-14a11.68,11.68,0,0,0,3.81-7L26.79,35.8A11.68,11.68,0,0,1,38,25.85l21.06-.55a11.68,11.68,0,0,0,7.43-2.93l15.78-14a11.68,11.68,0,0,1,15-.39l16.49,13.12a11.68,11.68,0,0,0,7.58,2.54l21.06-.55a11.68,11.68,0,0,1,11.75,9.35l4.2,20.65a11.68,11.68,0,0,0,4.17,6.81l16.49,13.12a11.68,11.68,0,0,1,3,14.71L172,106.28a11.68,11.68,0,0,0-1.18,7.9l4.2,20.65a11.68,11.68,0,0,1-7.17,13.2l-19.6,7.72a11.68,11.68,0,0,0-6,5.29L132.2,179.55A11.68,11.68,0,0,1,118.23,185.05Z" transform="translate(-0.13 -4.41)"/><circle id="白园" class="cls-1" cx="93.13" cy="93.36" r="45.53"/><path class="cls-2" d="M59.77,145.42C34.28,130.76,17.75,108,5.26,82A126.47,126.47,0,0,1,26.65,65.78C29.53,95.64,38.13,123.61,59.77,145.42Z" transform="translate(-0.13 -4.41)"/><path id="深红" class="cls-3" d="M41.79,78.88c8.43-30.48,24-53.23,47.27-74.47a132.7,132.7,0,0,1,21.81,15.5C81.75,32.3,56.81,50.3,41.79,78.88Z" transform="translate(-0.13 -4.41)"/><path id="粉红" class="cls-4" d="M39.14,114.15c-10.23-29.66-10.37-57-3.45-87.52a132.32,132.32,0,0,1,27.87.6C45.9,54.68,37.14,81.38,39.14,114.15Z" transform="translate(-0.13 -4.41)"/><path id="深蓝" class="cls-5" d="M95.35,155.39c-28.95,5.16-56.24-1.64-82.54-13.55a126.48,126.48,0,0,1,6-26.16C40.17,136.7,64.75,152.6,95.35,155.39Z" transform="translate(-0.13 -4.41)"/><path id="天蓝" class="cls-6" d="M131.13,140.4C112.27,163,87,175.28,59.17,183.07A126.47,126.47,0,0,1,47,159.19C76.86,161.54,105.9,157.92,131.13,140.4Z" transform="translate(-0.13 -4.41)"/><path id="深绿" class="cls-7" d="M149.87,105.31c0,29.41-11.4,55.1-27.7,78.94a126.47,126.47,0,0,1-24.71-10.44C121.88,156.39,141.8,135,149.87,105.31Z" transform="translate(-0.13 -4.41)"/><path id="浅绿" class="cls-8" d="M141.54,64.41c18.93,22.76,26.44,50.06,29,79A125.94,125.94,0,0,1,145,150.17C152.61,121.3,154.2,92.23,141.54,64.41Z" transform="translate(-0.13 -4.41)"/><path id="黄色" class="cls-9" d="M111.46,43.44c29.13,5.27,52.43,21.35,73,41.91a125.94,125.94,0,0,1-15.15,21.54C156.51,79.91,139,56.62,111.46,43.44Z" transform="translate(-0.13 -4.41)"/><path id="橙色" class="cls-10" d="M67.65,44.3C93.35,29.61,121.53,27,150.48,29.51a125.94,125.94,0,0,1,2.24,26.24C125.59,43.28,97.24,36.67,67.65,44.3Z" transform="translate(-0.13 -4.41)"/></g></g></svg>