<svg xmlns="http://www.w3.org/2000/svg" viewBox="0 0 60 60"><defs><style>.cls-1{fill:#efbc90;}.cls-2{fill:#cd7954;}.cls-3{fill:#fff;}</style></defs><title>user logo_1</title><g id="图层_2" data-name="图层 2"><rect class="cls-1" width="60" height="60"/><path class="cls-2" d="M25.73,17.73,0,43.46V60H23.2L39.85,43.35l-6.27-4-3.55-5-.76-7.24S28.15,23.11,28,22.82,25.73,17.73,25.73,17.73Z"/><path id="人白" class="cls-3" d="M34.56,15.08a6,6,0,0,1,3.68,1c2,1.59,1.45,5.14,1,9.14a5.83,5.83,0,0,1-2,4.11c.09.92.5,2.67.52,2.76a4.78,4.78,0,0,0,3.44,2,24.18,24.18,0,0,1,3.59,1.14L43.66,40.9l-18.42,0-1.19-5.63a13.22,13.22,0,0,1,3.52-1.13,4.78,4.78,0,0,0,3.45-2c0-.09.43-1.84.53-2.76a5.83,5.83,0,0,1-2-4.12c-.45-4-1-7.55,1-9.13a6,6,0,0,1,3.68-1h.29Z"/></g></svg>